<svg xmlns="http://www.w3.org/2000/svg" xmlns:xlink="http://www.w3.org/1999/xlink" width="240" height="240">
  <path fill="#2ACA4B" d="M213 173.397l-93 53.397-93-53.397V66.603l93-53.397 93 53.397v106.794z"/>
  <defs>
    <symbol xmlns="http://www.w3.org/2000/svg" xmlns:xl="http://www.w3.org/1999/xlink" id="a" viewBox="34 107 510 317">
      <path fill="#fff" d="M204.103 372.673l2.8103.829c3.5315-1.58 10.6303.862 14.396 2.056-6.934-7.687-17.3806-18.9751-24.907-26.0915-2.4704-8.6155-1.4164-17.2848-.8849-26.0799l.1067-.7276c-2.9668 7.0407-6.7316 13.8847-8.7552 21.2958-2.368 9.9981 10.5243 20.7856 15.5234 26.9681l1.7106 1.75zm214.9 42.285c-19.35-.547-27.861-.5-37.7156-16.705l-7.6806.22c-8.9398-.397-5.2142-.217-11.1784-.514-9.9719-.388-8.3744-9.863-10.1288-14.869-2.8063-16.993 3.7136-34.0739 3.508-51.0703-.0729-6.0333-8.6104-27.389-11.6604-35.0242-9.5617 1.8002-19.1752 2.1434-28.8754 2.6268-22.3593-.0548-44.5668-2.7928-66.6139-6.2698-4.2964 17.748-17.067 42.5893-6.511 60.6268 12.8128 18.6577 21.8043 23.8267 35.7413 24.9516 13.9369 1.1241 17.084 16.859 13.7121 22.479-2.9845 3.8841-8.2299 4.5891-12.6865 5.5301l-8.9144.419c-7.0148-.236-13.2849-2.13-19.5355-5.051-10.4385-5.827-21.2195-17.941-29.2296-26.638 1.8648 3.473 2.9772 10.253 1.2857 13.408-4.7359 6.709-25.2187 6.668-34.599 2.499-10.656-4.735-36.405-37.982-40.386-62.8824 10.591-20.0288 26.02-37.475 33.826-59.2833-17.015-10.857-26.128-28.5311-24.945-48.5515l.427-2.3175c-16.742 3.1342-8.06 1.968-26.07 3.3305-57.356-.1755-107.796-39.0648-79.394-99.5058 1.847-3.579 3.604-6.833 6.735-5.279 2.513 1.247 2.152 6.249.888 11.796-16.235 72.2188 63.112 72.7715 111.888 59.4078 4.841-1.3266 14.469-10.2612 21.1384-13.2231 10.902-4.8411 22.7348-6.8053 34.478-8.2206 29.2077-3.3281 64.3117 12.0584 82.148 12.5608 17.8365.5024 43.2095-4.2708 58.785-3.2658 11.3013.517 22.3985 2.557 33.3025 5.4628C407.8 147.215 408.299 121.868 425.031 116c9.82 1.551 17.387 14.933 22.988 22.083l.023-.004c11.407-.45 22.262 2.444 33.055 5.656 19.54-2.773 35.937-13.746 53.193-22.282-.054.269-.336.36-.504.541-16.982 13.734-19.354 36.958-17.356 58.4342.743 11.1442-2.406 23.2435-6.299 34.6536-7.285 18.5899-21.354 38.185-37.683 37.18-6.173-.1953-9.759-3.6906-14.347-7.4223-.89 7.5586-4.388 14.3032-7.76 20.988-7.787 14.822-28.136 21.3535-46.978 37.1801-18.8407 15.827 6.029 72.3514 12.059 82.6504 6.029 10.3 22.86 14.068 16.329 23.364-1.998 3.07-5.053 4.168-8.318 5.359l-4.43.577z"/>
    </symbol>
  </defs>
  <use x="900.9798" y="1037.1911" transform="translate(-541.2112 -614.9129) scale(.65719)" xlink:href="#a"/>
</svg>
