<svg xmlns="http://www.w3.org/2000/svg" width="240" height="240">
  <path fill="#2ACA4B" d="M213 173.397l-93 53.397-93-53.397V66.603l93-53.397 93 53.397v106.794z"/>
  <path fill="#fff" d="M92.895 163.4405c-7.0832 0-12.8141 5.7953-12.8141 12.8785s5.7309 12.8785 12.814 12.8785 12.8785-5.7953 12.8785-12.8785-5.7953-12.8785-12.8784-12.8785zM54.2595 60.4126v12.8785H67.138l23.1813 48.8738-8.693 15.7762c-1.0303 1.803-1.6098 3.928-1.6098 6.1817 0 7.0831 5.7953 12.8785 12.8785 12.8785h77.2709v-12.8785H95.5995c-.9015 0-1.6099-.7084-1.6099-1.6098l.1932-.7728 5.7953-10.496h47.9724c4.8294 0 9.0793-2.64 11.2687-6.6323l23.0525-41.7907a6.4586 6.4586 0 0 0-5.6666-9.5301H81.3689l-6.053-12.8785H54.2596zm103.0279 103.0279c-7.0832 0-12.8141 5.7953-12.8141 12.8785s5.731 12.8785 12.814 12.8785 12.8786-5.7953 12.8786-12.8785-5.7953-12.8785-12.8785-12.8785z"/>
</svg>
